<svg xmlns="http://www.w3.org/2000/svg" shape-rendering="geometricPrecision" text-rendering="geometricPrecision" image-rendering="optimizeQuality" fill-rule="evenodd" clip-rule="evenodd" viewBox="0 0 512 503.91"><path fill="#fff" fill-rule="nonzero" d="M408.8 0c28.5 0 54.31 11.56 72.97 30.23C500.44 48.89 512 74.7 512 103.2c0 28.48-11.56 54.3-30.23 72.96-18.66 18.67-44.47 30.23-72.97 30.23-28.48 0-54.3-11.56-72.96-30.23-1.19-1.18-2.35-2.4-3.48-3.64l-129.22 53.72c2.12 8.22 3.25 16.84 3.25 25.71 0 4.68-.31 9.3-.92 13.81l130.99 61.36c40.17-39.49 105.49-39.2 145.31.62 18.67 18.67 30.23 44.49 30.23 72.97 0 28.49-11.56 54.3-30.23 72.97-18.66 18.67-44.47 30.23-72.97 30.23-28.48 0-54.3-11.56-72.96-30.23-18.67-18.67-30.23-44.48-30.23-72.97 0-12.28 2.15-24.06 6.1-34.99l-122.18-57.23c-3.89 5.92-8.38 11.44-13.37 16.43-18.66 18.67-44.48 30.23-72.96 30.23-28.5 0-54.31-11.56-72.97-30.23C11.56 306.25 0 280.44 0 251.95c0-28.4 11.57-54.2 30.27-72.92 18.62-18.71 44.43-30.27 72.93-30.27 30.77 0 59.3 13.47 78.96 36.86l127.69-53.08c-2.76-9.31-4.24-19.15-4.24-29.34 0-28.5 11.56-54.31 30.23-72.97C354.5 11.56 380.32 0 408.8 0z"/></svg>